# WaveFront *.obj file (generated by Autodesk ATF)

mtllib model1.mtl

g Body1

v 2.500000 -1.200000 1.000000
v 2.489778 -1.277646 1.000000
v 2.459808 -1.350000 1.000000
v 2.412132 -1.412132 1.000000
v 2.350000 -1.459808 1.000000
v 2.277646 -1.489778 1.000000
v 2.200000 -1.500000 1.000000
v 2.200000 -1.500000 0.000000
v 2.277646 -1.489778 0.000000
v 2.350000 -1.459808 0.000000
v 2.412132 -1.412132 0.000000
v 2.459808 -1.350000 0.000000
v 2.489778 -1.277646 0.000000
v 2.500000 -1.200000 0.000000
v 2.500000 1.200000 0.000000
v 2.500000 1.200000 1.000000
v -0.325000 -0.000000 0.000000
v -0.313926 -0.084116 0.000000
v -0.281458 -0.162500 0.000000
v -0.229810 -0.229810 0.000000
v -0.162500 -0.281458 0.000000
v -0.084116 -0.313926 0.000000
v 0.000000 -0.325000 0.000000
v 0.084116 -0.313926 0.000000
v 0.162500 -0.281458 0.000000
v 0.229810 -0.229810 0.000000
v 0.281458 -0.162500 0.000000
v 0.313926 -0.084116 0.000000
v 0.325000 0.000000 0.000000
v 0.313926 0.084116 0.000000
v 0.281458 0.162500 0.000000
v 0.229810 0.229810 0.000000
v 0.162500 0.281458 0.000000
v 0.084116 0.313926 0.000000
v 0.000000 0.325000 0.000000
v -0.084116 0.313926 0.000000
v -0.162500 0.281458 0.000000
v -0.229810 0.229810 0.000000
v -0.281458 0.162500 0.000000
v -0.313926 0.084116 0.000000
v -2.200000 -1.500000 0.000000
v -2.277646 -1.489778 0.000000
v -2.350000 -1.459808 0.000000
v -2.412132 -1.412132 0.000000
v -2.459808 -1.350000 0.000000
v -2.489778 -1.277646 0.000000
v -2.500000 -1.200000 0.000000
v -2.500000 1.200000 0.000000
v -2.489778 1.277646 0.000000
v -2.459808 1.350000 0.000000
v -2.412132 1.412132 0.000000
v -2.350000 1.459808 0.000000
v -2.277646 1.489778 0.000000
v -2.200000 1.500000 0.000000
v 2.200000 1.500000 0.000000
v 2.277646 1.489778 0.000000
v 2.350000 1.459808 0.000000
v 2.412132 1.412132 0.000000
v 2.459808 1.350000 0.000000
v 2.489778 1.277646 0.000000
v 2.200000 1.500000 1.000000
v 2.277646 1.489778 1.000000
v 2.350000 1.459808 1.000000
v 2.412132 1.412132 1.000000
v 2.459808 1.350000 1.000000
v 2.489778 1.277646 1.000000
v -2.200000 1.500000 1.000000
v -2.200000 -1.500000 1.000000
v -2.277646 -1.489778 1.000000
v -2.350000 -1.459808 1.000000
v -2.412132 -1.412132 1.000000
v -2.459808 -1.350000 1.000000
v -2.489778 -1.277646 1.000000
v -2.500000 -1.200000 1.000000
v -2.500000 1.200000 1.000000
v -2.489778 1.277646 1.000000
v -2.459808 1.350000 1.000000
v -2.412132 1.412132 1.000000
v -2.350000 1.459808 1.000000
v -2.277646 1.489778 1.000000
v -0.325000 -0.000000 1.000000
v -0.313926 -0.084116 1.000000
v -0.281458 -0.162500 1.000000
v -0.229810 -0.229810 1.000000
v -0.162500 -0.281458 1.000000
v -0.084116 -0.313926 1.000000
v 0.000000 -0.325000 1.000000
v 0.084116 -0.313926 1.000000
v 0.162500 -0.281458 1.000000
v 0.229810 -0.229810 1.000000
v 0.281458 -0.162500 1.000000
v 0.313926 -0.084116 1.000000
v 0.325000 0.000000 1.000000
v 0.313926 0.084116 1.000000
v 0.281458 0.162500 1.000000
v 0.229810 0.229810 1.000000
v 0.162500 0.281458 1.000000
v 0.084116 0.313926 1.000000
v 0.000000 0.325000 1.000000
v -0.084116 0.313926 1.000000
v -0.162500 0.281458 1.000000
v -0.229810 0.229810 1.000000
v -0.281458 0.162500 1.000000
v -0.313926 0.084116 1.000000
vt -0.000000 0.235619 0.000000
vt -1.000000 0.235619 0.000000
vt -0.000000 0.157080 0.000000
vt -1.000000 0.157080 0.000000
vt -0.000000 0.078540 0.000000
vt -1.000000 0.078540 0.000000
vt -0.000000 0.000000 0.000000
vt -1.000000 0.000000 0.000000
vt -0.000000 -0.078540 0.000000
vt -1.000000 -0.078540 0.000000
vt -0.000000 -0.157080 0.000000
vt -1.000000 -0.157080 0.000000
vt -0.000000 -0.235619 0.000000
vt -1.000000 -0.235619 0.000000
vt 0.300000 0.000000 0.000000
vt 2.700000 0.000000 0.000000
vt 0.300000 1.000000 0.000000
vt 2.700000 1.000000 0.000000
vt 0.313926 -0.084116 0.000000
vt 2.500000 -1.200000 0.000000
vt 0.325000 -0.000000 0.000000
vt 2.500000 1.200000 0.000000
vt 0.313926 0.084116 0.000000
vt 0.281458 0.162500 0.000000
vt 0.229810 0.229810 0.000000
vt 0.162500 0.281458 0.000000
vt 2.200000 1.500000 0.000000
vt 0.084116 0.313926 0.000000
vt -0.000000 0.325000 0.000000
vt -2.200000 1.500000 0.000000
vt -0.084116 0.313926 0.000000
vt -0.162500 0.281458 0.000000
vt -2.500000 1.200000 0.000000
vt -0.229810 0.229810 0.000000
vt -0.281458 0.162500 0.000000
vt -0.313926 0.084116 0.000000
vt -0.325000 0.000000 0.000000
vt -2.500000 -1.200000 0.000000
vt -0.313926 -0.084116 0.000000
vt -0.281458 -0.162500 0.000000
vt -0.229810 -0.229810 0.000000
vt -0.162500 -0.281458 0.000000
vt -2.200000 -1.500000 0.000000
vt -0.084116 -0.313926 0.000000
vt -0.000000 -0.325000 0.000000
vt 2.200000 -1.500000 0.000000
vt 0.084116 -0.313926 0.000000
vt 0.162500 -0.281458 0.000000
vt 0.229810 -0.229810 0.000000
vt 0.281458 -0.162500 0.000000
vt -2.489778 -1.277646 0.000000
vt -2.459808 -1.350000 0.000000
vt -2.412132 -1.412132 0.000000
vt -2.350000 -1.459808 0.000000
vt -2.277646 -1.489778 0.000000
vt 2.277646 -1.489778 0.000000
vt 2.350000 -1.459808 0.000000
vt 2.412132 -1.412132 0.000000
vt 2.459808 -1.350000 0.000000
vt 2.489778 -1.277646 0.000000
vt 2.489778 1.277646 0.000000
vt 2.459808 1.350000 0.000000
vt 2.412132 1.412132 0.000000
vt 2.350000 1.459808 0.000000
vt 2.277646 1.489778 0.000000
vt -2.277646 1.489778 0.000000
vt -2.350000 1.459808 0.000000
vt -2.412132 1.412132 0.000000
vt -2.459808 1.350000 0.000000
vt -2.489778 1.277646 0.000000
vt -0.000000 0.235619 0.000000
vt -1.000000 0.235619 0.000000
vt -0.000000 0.157080 0.000000
vt -1.000000 0.157080 0.000000
vt -0.000000 0.078540 0.000000
vt -1.000000 0.078540 0.000000
vt -0.000000 0.000000 0.000000
vt -1.000000 0.000000 0.000000
vt -0.000000 -0.078540 0.000000
vt -1.000000 -0.078540 0.000000
vt -0.000000 -0.157080 0.000000
vt -1.000000 -0.157080 0.000000
vt -0.000000 -0.235619 0.000000
vt -1.000000 -0.235619 0.000000
vt 0.300000 0.000000 0.000000
vt 4.700000 0.000000 0.000000
vt 0.300000 1.000000 0.000000
vt 4.700000 1.000000 0.000000
vt -0.000000 0.235619 0.000000
vt -1.000000 0.235619 0.000000
vt -0.000000 0.157080 0.000000
vt -1.000000 0.157080 0.000000
vt -0.000000 0.078540 0.000000
vt -1.000000 0.078540 0.000000
vt -0.000000 0.000000 0.000000
vt -1.000000 0.000000 0.000000
vt -0.000000 -0.078540 0.000000
vt -1.000000 -0.078540 0.000000
vt -0.000000 -0.157080 0.000000
vt -1.000000 -0.157080 0.000000
vt -0.000000 -0.235619 0.000000
vt -1.000000 -0.235619 0.000000
vt 4.700000 1.000000 0.000000
vt 0.300000 1.000000 0.000000
vt 4.700000 0.000000 0.000000
vt 0.300000 0.000000 0.000000
vt -0.000000 0.235619 0.000000
vt -1.000000 0.235619 0.000000
vt -0.000000 0.157080 0.000000
vt -1.000000 0.157080 0.000000
vt -0.000000 0.078540 0.000000
vt -1.000000 0.078540 0.000000
vt -0.000000 0.000000 0.000000
vt -1.000000 0.000000 0.000000
vt -0.000000 -0.078540 0.000000
vt -1.000000 -0.078540 0.000000
vt -0.000000 -0.157080 0.000000
vt -1.000000 -0.157080 0.000000
vt -0.000000 -0.235619 0.000000
vt -1.000000 -0.235619 0.000000
vt 1.000000 -0.935933 0.000000
vt 0.000000 -0.935933 0.000000
vt 1.000000 -1.021018 0.000000
vt 0.000000 -1.021018 0.000000
vt 1.000000 1.021018 0.000000
vt 0.000000 1.021018 0.000000
vt 1.000000 0.935933 0.000000
vt 0.000000 0.935933 0.000000
vt 1.000000 0.850848 0.000000
vt 0.000000 0.850848 0.000000
vt 1.000000 0.765763 0.000000
vt 0.000000 0.765763 0.000000
vt 1.000000 0.680678 0.000000
vt 0.000000 0.680678 0.000000
vt 1.000000 0.595594 0.000000
vt -0.000000 0.595594 0.000000
vt 1.000000 0.510509 0.000000
vt 0.000000 0.510509 0.000000
vt 1.000000 0.425424 0.000000
vt -0.000000 0.425424 0.000000
vt 1.000000 0.340339 0.000000
vt 0.000000 0.340339 0.000000
vt 1.000000 0.255254 0.000000
vt -0.000000 0.255254 0.000000
vt 1.000000 0.170170 0.000000
vt 0.000000 0.170170 0.000000
vt 1.000000 0.085085 0.000000
vt 0.000000 0.085085 0.000000
vt 1.000000 0.000000 0.000000
vt 0.000000 0.000000 0.000000
vt 1.000000 -0.085085 0.000000
vt 0.000000 -0.085085 0.000000
vt 1.000000 -0.170170 0.000000
vt 0.000000 -0.170170 0.000000
vt 1.000000 -0.255254 0.000000
vt 0.000000 -0.255254 0.000000
vt 1.000000 -0.340339 0.000000
vt -0.000000 -0.340339 0.000000
vt 1.000000 -0.425424 0.000000
vt 0.000000 -0.425424 0.000000
vt 1.000000 -0.510509 0.000000
vt 0.000000 -0.510509 0.000000
vt 1.000000 -0.595594 0.000000
vt 0.000000 -0.595594 0.000000
vt 1.000000 -0.680678 0.000000
vt 0.000000 -0.680678 0.000000
vt 1.000000 -0.765763 0.000000
vt 0.000000 -0.765763 0.000000
vt 1.000000 -0.850848 0.000000
vt -0.000000 -0.850848 0.000000
vt 2.700000 1.000000 0.000000
vt 0.300000 1.000000 0.000000
vt 2.700000 0.000000 0.000000
vt 0.300000 0.000000 0.000000
vt 2.277646 -1.489778 0.000000
vt 2.350000 -1.459808 0.000000
vt 2.200000 -1.500000 0.000000
vt 2.412132 -1.412132 0.000000
vt 2.459808 -1.350000 0.000000
vt 2.489778 -1.277646 0.000000
vt 2.500000 -1.200000 0.000000
vt 0.162500 -0.281458 0.000000
vt 0.229810 -0.229810 0.000000
vt 0.281458 -0.162500 0.000000
vt 0.313926 -0.084116 0.000000
vt 0.325000 0.000000 0.000000
vt 2.500000 1.200000 0.000000
vt 0.313926 0.084116 0.000000
vt 0.281458 0.162500 0.000000
vt 0.229810 0.229810 0.000000
vt 0.162500 0.281458 0.000000
vt 2.200000 1.500000 0.000000
vt 0.084116 0.313926 0.000000
vt 0.000000 0.325000 0.000000
vt -2.200000 1.500000 0.000000
vt -0.084116 0.313926 0.000000
vt -0.162500 0.281458 0.000000
vt -2.500000 1.200000 0.000000
vt -0.229810 0.229810 0.000000
vt -0.281458 0.162500 0.000000
vt -0.313926 0.084116 0.000000
vt -0.325000 -0.000000 0.000000
vt -2.500000 -1.200000 0.000000
vt -0.313926 -0.084116 0.000000
vt -0.281458 -0.162500 0.000000
vt -0.229810 -0.229810 0.000000
vt -0.162500 -0.281458 0.000000
vt -2.200000 -1.500000 0.000000
vt -0.084116 -0.313926 0.000000
vt 0.000000 -0.325000 0.000000
vt 0.084116 -0.313926 0.000000
vt 2.489778 1.277646 0.000000
vt 2.459808 1.350000 0.000000
vt 2.412132 1.412132 0.000000
vt 2.350000 1.459808 0.000000
vt 2.277646 1.489778 0.000000
vt -2.277646 1.489778 0.000000
vt -2.350000 1.459808 0.000000
vt -2.412132 1.412132 0.000000
vt -2.459808 1.350000 0.000000
vt -2.489778 1.277646 0.000000
vt -2.489778 -1.277646 0.000000
vt -2.459808 -1.350000 0.000000
vt -2.412132 -1.412132 0.000000
vt -2.350000 -1.459808 0.000000
vt -2.277646 -1.489778 0.000000
vn 1.000000 0.000000 -0.000000
vn 1.000000 0.000000 -0.000000
vn 0.965926 -0.258819 -0.000000
vn 0.965926 -0.258819 -0.000000
vn 0.866025 -0.500000 -0.000000
vn 0.866025 -0.500000 -0.000000
vn 0.707107 -0.707107 -0.000000
vn 0.707107 -0.707107 -0.000000
vn 0.500000 -0.866025 -0.000000
vn 0.500000 -0.866025 -0.000000
vn 0.258819 -0.965926 -0.000000
vn 0.258819 -0.965926 -0.000000
vn -0.000000 -1.000000 -0.000000
vn -0.000000 -1.000000 -0.000000
vn 1.000000 0.000000 -0.000000
vn 1.000000 0.000000 -0.000000
vn -0.000000 0.000000 -1.000000
vn -0.000000 0.000000 -1.000000
vn -0.000000 0.000000 -1.000000
vn -0.000000 0.000000 -1.000000
vn -0.000000 0.000000 -1.000000
vn -0.000000 0.000000 -1.000000
vn -0.000000 0.000000 -1.000000
vn -0.000000 0.000000 -1.000000
vn -0.000000 0.000000 -1.000000
vn -0.000000 0.000000 -1.000000
vn -0.000000 0.000000 -1.000000
vn -0.000000 0.000000 -1.000000
vn -0.000000 0.000000 -1.000000
vn -0.000000 0.000000 -1.000000
vn -0.000000 0.000000 -1.000000
vn -0.000000 0.000000 -1.000000
vn -0.000000 0.000000 -1.000000
vn -0.000000 0.000000 -1.000000
vn -0.000000 0.000000 -1.000000
vn -0.000000 0.000000 -1.000000
vn -0.000000 0.000000 -1.000000
vn -0.000000 0.000000 -1.000000
vn -0.000000 0.000000 -1.000000
vn -0.000000 0.000000 -1.000000
vn -0.000000 0.000000 -1.000000
vn -0.000000 0.000000 -1.000000
vn -0.000000 0.000000 -1.000000
vn -0.000000 0.000000 -1.000000
vn -0.000000 0.000000 -1.000000
vn -0.000000 0.000000 -1.000000
vn -0.000000 0.000000 -1.000000
vn -0.000000 0.000000 -1.000000
vn -0.000000 0.000000 -1.000000
vn -0.000000 0.000000 -1.000000
vn -0.000000 0.000000 -1.000000
vn -0.000000 0.000000 -1.000000
vn -0.000000 0.000000 -1.000000
vn -0.000000 0.000000 -1.000000
vn -0.000000 0.000000 -1.000000
vn -0.000000 0.000000 -1.000000
vn -0.000000 0.000000 -1.000000
vn -0.000000 0.000000 -1.000000
vn -0.000000 0.000000 -1.000000
vn -0.000000 0.000000 -1.000000
vn -0.000000 0.000000 -1.000000
vn -0.000000 0.000000 -1.000000
vn -0.000000 0.000000 -1.000000
vn -0.000000 0.000000 -1.000000
vn -0.000000 0.000000 -1.000000
vn -0.000000 0.000000 -1.000000
vn -0.000000 0.000000 -1.000000
vn -0.000000 0.000000 -1.000000
vn -0.000000 1.000000 -0.000000
vn -0.000000 1.000000 -0.000000
vn 0.258819 0.965926 -0.000000
vn 0.258819 0.965926 -0.000000
vn 0.500000 0.866025 -0.000000
vn 0.500000 0.866025 -0.000000
vn 0.707107 0.707107 -0.000000
vn 0.707107 0.707107 -0.000000
vn 0.866025 0.500000 -0.000000
vn 0.866025 0.500000 -0.000000
vn 0.965926 0.258819 -0.000000
vn 0.965926 0.258819 -0.000000
vn -0.000000 1.000000 0.000000
vn -0.000000 1.000000 0.000000
vn -0.000000 -1.000000 -0.000000
vn -0.000000 -1.000000 -0.000000
vn -0.258819 -0.965926 0.000000
vn -0.258819 -0.965926 0.000000
vn -0.500000 -0.866025 0.000000
vn -0.500000 -0.866025 0.000000
vn -0.707107 -0.707107 0.000000
vn -0.707107 -0.707107 0.000000
vn -0.866025 -0.500000 0.000000
vn -0.866025 -0.500000 0.000000
vn -0.965926 -0.258819 0.000000
vn -0.965926 -0.258819 0.000000
vn -1.000000 -0.000000 0.000000
vn -1.000000 -0.000000 0.000000
vn -1.000000 -0.000000 0.000000
vn -1.000000 -0.000000 0.000000
vn -0.965926 0.258819 -0.000000
vn -0.965926 0.258819 -0.000000
vn -0.866025 0.500000 -0.000000
vn -0.866025 0.500000 -0.000000
vn -0.707107 0.707107 -0.000000
vn -0.707107 0.707107 -0.000000
vn -0.500000 0.866025 -0.000000
vn -0.500000 0.866025 -0.000000
vn -0.258819 0.965926 -0.000000
vn -0.258819 0.965926 -0.000000
vn 0.965926 0.258819 -0.000000
vn 0.965926 0.258819 -0.000000
vn 1.000000 0.000000 -0.000000
vn 1.000000 0.000000 -0.000000
vn 0.965926 -0.258819 0.000000
vn 0.965926 -0.258819 0.000000
vn 0.866025 -0.500000 0.000000
vn 0.866025 -0.500000 0.000000
vn 0.707107 -0.707107 0.000000
vn 0.707107 -0.707107 0.000000
vn 0.500000 -0.866025 0.000000
vn 0.500000 -0.866025 0.000000
vn 0.258819 -0.965926 0.000000
vn 0.258819 -0.965926 0.000000
vn -0.000000 -1.000000 0.000000
vn -0.000000 -1.000000 0.000000
vn -0.258819 -0.965926 0.000000
vn -0.258819 -0.965926 0.000000
vn -0.500000 -0.866025 0.000000
vn -0.500000 -0.866025 0.000000
vn -0.707107 -0.707107 0.000000
vn -0.707107 -0.707107 0.000000
vn -0.866025 -0.500000 0.000000
vn -0.866025 -0.500000 0.000000
vn -0.965926 -0.258819 0.000000
vn -0.965926 -0.258819 0.000000
vn -1.000000 0.000000 0.000000
vn -1.000000 0.000000 0.000000
vn -0.965926 0.258819 0.000000
vn -0.965926 0.258819 0.000000
vn -0.866025 0.500000 0.000000
vn -0.866025 0.500000 0.000000
vn -0.707107 0.707107 0.000000
vn -0.707107 0.707107 0.000000
vn -0.500000 0.866025 0.000000
vn -0.500000 0.866025 0.000000
vn -0.258819 0.965926 0.000000
vn -0.258819 0.965926 0.000000
vn -0.000000 1.000000 0.000000
vn -0.000000 1.000000 0.000000
vn 0.258819 0.965926 -0.000000
vn 0.258819 0.965926 -0.000000
vn 0.500000 0.866025 -0.000000
vn 0.500000 0.866025 -0.000000
vn 0.707107 0.707107 -0.000000
vn 0.707107 0.707107 -0.000000
vn 0.866025 0.500000 -0.000000
vn 0.866025 0.500000 -0.000000
vn 0.000000 0.000000 1.000000
vn 0.000000 0.000000 1.000000
vn 0.000000 0.000000 1.000000
vn 0.000000 0.000000 1.000000
vn 0.000000 0.000000 1.000000
vn 0.000000 0.000000 1.000000
vn 0.000000 0.000000 1.000000
vn 0.000000 0.000000 1.000000
vn 0.000000 0.000000 1.000000
vn 0.000000 0.000000 1.000000
vn 0.000000 0.000000 1.000000
vn 0.000000 0.000000 1.000000
vn 0.000000 0.000000 1.000000
vn 0.000000 0.000000 1.000000
vn 0.000000 0.000000 1.000000
vn 0.000000 0.000000 1.000000
vn 0.000000 0.000000 1.000000
vn 0.000000 0.000000 1.000000
vn 0.000000 0.000000 1.000000
vn 0.000000 0.000000 1.000000
vn 0.000000 0.000000 1.000000
vn 0.000000 0.000000 1.000000
vn 0.000000 0.000000 1.000000
vn 0.000000 0.000000 1.000000
vn 0.000000 0.000000 1.000000
vn 0.000000 0.000000 1.000000
vn 0.000000 0.000000 1.000000
vn 0.000000 0.000000 1.000000
vn 0.000000 0.000000 1.000000
vn 0.000000 0.000000 1.000000
vn 0.000000 0.000000 1.000000
vn 0.000000 0.000000 1.000000
vn 0.000000 0.000000 1.000000
vn 0.000000 0.000000 1.000000
vn 0.000000 0.000000 1.000000
vn 0.000000 0.000000 1.000000
vn 0.000000 0.000000 1.000000
vn 0.000000 0.000000 1.000000
vn 0.000000 0.000000 1.000000
vn 0.000000 0.000000 1.000000
vn 0.000000 0.000000 1.000000
vn 0.000000 0.000000 1.000000
vn 0.000000 0.000000 1.000000
vn 0.000000 0.000000 1.000000
vn 0.000000 0.000000 1.000000
vn 0.000000 0.000000 1.000000
vn 0.000000 0.000000 1.000000
vn 0.000000 0.000000 1.000000
vn 0.000000 0.000000 1.000000
vn 0.000000 0.000000 1.000000
vn 0.000000 0.000000 1.000000
vn 0.000000 0.000000 1.000000
usemtl Steel_-_Satin
f 14/1/1 1/2/2 13/3/3
f 13/3/3 1/2/2 2/4/4
f 13/3/3 2/4/4 12/5/5
f 12/5/5 2/4/4 3/6/6
f 12/5/5 3/6/6 11/7/7
f 11/7/7 3/6/6 4/8/8
f 11/7/7 4/8/8 10/9/9
f 10/9/9 4/8/8 5/10/10
f 10/9/9 5/10/10 9/11/11
f 9/11/11 5/10/10 6/12/12
f 9/11/11 6/12/12 8/13/13
f 8/13/13 6/12/12 7/14/14
f 14/15/1 15/16/15 1/17/2
f 1/17/2 15/16/15 16/18/16
f 18/19/17 47/20/18 17/21/19
f 17/21/19 47/20/18 48/22/20
f 17/21/19 48/22/20 40/23/21
f 40/23/21 48/22/20 39/24/22
f 39/24/22 48/22/20 38/25/23
f 38/25/23 48/22/20 37/26/24
f 37/26/24 48/22/20 54/27/25
f 37/26/24 54/27/25 36/28/26
f 36/28/26 54/27/25 35/29/27
f 35/29/27 54/27/25 55/30/28
f 35/29/27 55/30/28 34/31/29
f 34/31/29 55/30/28 33/32/30
f 33/32/30 55/30/28 15/33/31
f 33/32/30 15/33/31 32/34/32
f 32/34/32 15/33/31 31/35/33
f 31/35/33 15/33/31 30/36/34
f 30/36/34 15/33/31 29/37/35
f 29/37/35 15/33/31 14/38/36
f 29/37/35 14/38/36 28/39/37
f 28/39/37 14/38/36 27/40/38
f 27/40/38 14/38/36 26/41/39
f 26/41/39 14/38/36 25/42/40
f 25/42/40 14/38/36 8/43/41
f 25/42/40 8/43/41 24/44/42
f 24/44/42 8/43/41 23/45/43
f 23/45/43 8/43/41 41/46/44
f 23/45/43 41/46/44 22/47/45
f 22/47/45 41/46/44 21/48/46
f 21/48/46 41/46/44 47/20/18
f 21/48/46 47/20/18 20/49/47
f 20/49/47 47/20/18 19/50/48
f 19/50/48 47/20/18 18/19/17
f 14/38/36 13/51/49 8/43/41
f 8/43/41 13/51/49 12/52/50
f 8/43/41 12/52/50 11/53/51
f 11/53/51 10/54/52 8/43/41
f 8/43/41 10/54/52 9/55/53
f 42/56/54 43/57/55 41/46/44
f 41/46/44 43/57/55 44/58/56
f 41/46/44 44/58/56 45/59/57
f 45/59/57 46/60/58 41/46/44
f 41/46/44 46/60/58 47/20/18
f 48/22/20 49/61/59 54/27/25
f 54/27/25 49/61/59 50/62/60
f 54/27/25 50/62/60 51/63/61
f 51/63/61 52/64/62 54/27/25
f 54/27/25 52/64/62 53/65/63
f 56/66/64 57/67/65 55/30/28
f 55/30/28 57/67/65 58/68/66
f 55/30/28 58/68/66 59/69/67
f 59/69/67 60/70/68 55/30/28
f 55/30/28 60/70/68 15/33/31
f 55/71/69 61/72/70 56/73/71
f 56/73/71 61/72/70 62/74/72
f 56/73/71 62/74/72 57/75/73
f 57/75/73 62/74/72 63/76/74
f 57/75/73 63/76/74 58/77/75
f 58/77/75 63/76/74 64/78/76
f 58/77/75 64/78/76 59/79/77
f 59/79/77 64/78/76 65/80/78
f 59/79/77 65/80/78 60/81/79
f 60/81/79 65/80/78 66/82/80
f 60/81/79 66/82/80 15/83/15
f 15/83/15 66/82/80 16/84/16
f 55/85/69 54/86/81 61/87/70
f 61/87/70 54/86/81 67/88/82
f 41/89/83 68/90/84 42/91/85
f 42/91/85 68/90/84 69/92/86
f 42/91/85 69/92/86 43/93/87
f 43/93/87 69/92/86 70/94/88
f 43/93/87 70/94/88 44/95/89
f 44/95/89 70/94/88 71/96/90
f 44/95/89 71/96/90 45/97/91
f 45/97/91 71/96/90 72/98/92
f 45/97/91 72/98/92 46/99/93
f 46/99/93 72/98/92 73/100/94
f 46/99/93 73/100/94 47/101/95
f 47/101/95 73/100/94 74/102/96
f 7/103/14 68/104/84 8/105/13
f 8/105/13 68/104/84 41/106/83
f 48/107/97 75/108/98 49/109/99
f 49/109/99 75/108/98 76/110/100
f 49/109/99 76/110/100 50/111/101
f 50/111/101 76/110/100 77/112/102
f 50/111/101 77/112/102 51/113/103
f 51/113/103 77/112/102 78/114/104
f 51/113/103 78/114/104 52/115/105
f 52/115/105 78/114/104 79/116/106
f 52/115/105 79/116/106 53/117/107
f 53/117/107 79/116/106 80/118/108
f 53/117/107 80/118/108 54/119/81
f 54/119/81 80/118/108 67/120/82
f 82/121/109 18/122/110 81/123/111
f 81/123/111 18/122/110 17/124/112
f 81/125/111 17/126/112 104/127/113
f 104/127/113 17/126/112 40/128/114
f 104/127/113 40/128/114 103/129/115
f 103/129/115 40/128/114 39/130/116
f 103/129/115 39/130/116 102/131/117
f 102/131/117 39/130/116 38/132/118
f 102/131/117 38/132/118 101/133/119
f 101/133/119 38/132/118 37/134/120
f 101/133/119 37/134/120 100/135/121
f 100/135/121 37/134/120 36/136/122
f 100/135/121 36/136/122 99/137/123
f 99/137/123 36/136/122 35/138/124
f 99/137/123 35/138/124 98/139/125
f 98/139/125 35/138/124 34/140/126
f 98/139/125 34/140/126 97/141/127
f 97/141/127 34/140/126 33/142/128
f 97/141/127 33/142/128 96/143/129
f 96/143/129 33/142/128 32/144/130
f 96/143/129 32/144/130 95/145/131
f 95/145/131 32/144/130 31/146/132
f 95/145/131 31/146/132 94/147/133
f 94/147/133 31/146/132 30/148/134
f 94/147/133 30/148/134 93/149/135
f 93/149/135 30/148/134 29/150/136
f 93/149/135 29/150/136 92/151/137
f 92/151/137 29/150/136 28/152/138
f 92/151/137 28/152/138 91/153/139
f 91/153/139 28/152/138 27/154/140
f 91/153/139 27/154/140 90/155/141
f 90/155/141 27/154/140 26/156/142
f 90/155/141 26/156/142 89/157/143
f 89/157/143 26/156/142 25/158/144
f 89/157/143 25/158/144 88/159/145
f 88/159/145 25/158/144 24/160/146
f 88/159/145 24/160/146 87/161/147
f 87/161/147 24/160/146 23/162/148
f 87/161/147 23/162/148 86/163/149
f 86/163/149 23/162/148 22/164/150
f 86/163/149 22/164/150 85/165/151
f 85/165/151 22/164/150 21/166/152
f 85/165/151 21/166/152 84/167/153
f 84/167/153 21/166/152 20/168/154
f 84/167/153 20/168/154 83/169/155
f 83/169/155 20/168/154 19/170/156
f 83/169/155 19/170/156 82/121/109
f 82/121/109 19/170/156 18/122/110
f 74/171/96 75/172/98 47/173/95
f 47/173/95 75/172/98 48/174/97
f 6/175/157 5/176/158 7/177/159
f 7/177/159 5/176/158 4/178/160
f 7/177/159 4/178/160 3/179/161
f 3/179/161 2/180/162 7/177/159
f 7/177/159 2/180/162 1/181/163
f 7/177/159 1/181/163 89/182/164
f 89/182/164 1/181/163 90/183/165
f 90/183/165 1/181/163 91/184/166
f 91/184/166 1/181/163 92/185/167
f 92/185/167 1/181/163 93/186/168
f 93/186/168 1/181/163 16/187/169
f 93/186/168 16/187/169 94/188/170
f 94/188/170 16/187/169 95/189/171
f 95/189/171 16/187/169 96/190/172
f 96/190/172 16/187/169 97/191/173
f 97/191/173 16/187/169 61/192/174
f 97/191/173 61/192/174 98/193/175
f 98/193/175 61/192/174 99/194/176
f 99/194/176 61/192/174 67/195/177
f 99/194/176 67/195/177 100/196/178
f 100/196/178 67/195/177 101/197/179
f 101/197/179 67/195/177 75/198/180
f 101/197/179 75/198/180 102/199/181
f 102/199/181 75/198/180 103/200/182
f 103/200/182 75/198/180 104/201/183
f 104/201/183 75/198/180 81/202/184
f 81/202/184 75/198/180 74/203/185
f 81/202/184 74/203/185 82/204/186
f 82/204/186 74/203/185 83/205/187
f 83/205/187 74/203/185 84/206/188
f 84/206/188 74/203/185 85/207/189
f 85/207/189 74/203/185 68/208/190
f 85/207/189 68/208/190 86/209/191
f 86/209/191 68/208/190 87/210/192
f 87/210/192 68/208/190 7/177/159
f 87/210/192 7/177/159 88/211/193
f 88/211/193 7/177/159 89/182/164
f 16/187/169 66/212/194 61/192/174
f 61/192/174 66/212/194 65/213/195
f 61/192/174 65/213/195 64/214/196
f 64/214/196 63/215/197 61/192/174
f 61/192/174 63/215/197 62/216/198
f 80/217/199 79/218/200 67/195/177
f 67/195/177 79/218/200 78/219/201
f 67/195/177 78/219/201 77/220/202
f 77/220/202 76/221/203 67/195/177
f 67/195/177 76/221/203 75/198/180
f 74/203/185 73/222/204 68/208/190
f 68/208/190 73/222/204 72/223/205
f 68/208/190 72/223/205 71/224/206
f 71/224/206 70/225/207 68/208/190
f 68/208/190 70/225/207 69/226/208
# 104 vertices
# 226 texture params
# 208 normals
# 208 facets

# 1 groups
